<svg width="100%" height="100%" viewBox="0 0 864 126" fill="none" xmlns="http://www.w3.org/2000/svg">
    <path
        d="M303.812 105.396C303.812 107.132 302.783 108 300.725 108H286.193C284.659 108 282.964 107.455 281.107 106.365C279.291 105.235 277.898 103.883 276.93 102.309L266.637 86.2031C262.398 79.5833 257.272 76.2734 251.258 76.2734H236.484V102.309C236.484 103.883 235.919 105.235 234.789 106.365C233.699 107.455 232.367 108 230.793 108H219.41C217.836 108 216.484 107.455 215.353 106.365C214.223 105.235 213.658 103.883 213.658 102.309V26.9277C213.658 25.3535 214.203 24.0013 215.293 22.8711C216.383 21.7409 217.715 21.1758 219.289 21.1758H269.24C278.484 21.1758 286.052 23.6582 291.945 28.623C297.879 33.5879 300.846 40.2884 300.846 48.7246C300.846 60.4707 293.237 67.8372 278.02 70.8242C280.441 71.7122 282.682 73.2461 284.74 75.4258C286.799 77.5651 289.16 80.6934 291.824 84.8105L302.844 102.309C303.49 103.439 303.812 104.468 303.812 105.396ZM236.484 59.1387H262.277C266.435 59.1387 270.088 58.3112 273.236 56.6562C276.425 55.0013 278.02 52.3574 278.02 48.7246C278.02 45.0918 276.425 42.4479 273.236 40.793C270.088 39.138 266.435 38.3105 262.277 38.3105H236.484V59.1387Z"
        fill="white" />
    <path
        d="M317.678 100.371C311.462 94.4779 308.353 86.0013 308.353 74.9414C308.353 63.8411 311.482 55.3242 317.738 49.3906C323.995 43.4167 332.673 40.4297 343.773 40.4297C354.874 40.4297 363.532 43.3359 369.748 49.1484C375.964 54.9206 379.072 63.2155 379.072 74.0332V77.4844C379.072 78.5742 378.709 79.4824 377.982 80.209C377.296 80.8952 376.408 81.2383 375.318 81.2383H329.727C330.13 86.2031 331.543 89.8158 333.965 92.0762C336.427 94.3366 340.342 95.4668 345.711 95.4668C351.079 95.4668 354.753 94.2559 356.73 91.834C358.708 89.4121 361.15 88.181 364.057 88.1406H373.078C374.168 88.1406 375.056 88.5039 375.742 89.2305C376.469 89.9167 376.832 90.8047 376.832 91.8945C376.832 103.479 365.792 109.251 343.713 109.211C332.572 109.211 323.894 106.264 317.678 100.371ZM329.605 68.4629H357.76C357.356 58.9368 352.674 54.1738 343.713 54.1738C334.792 54.1738 330.09 58.9368 329.605 68.4629Z"
        fill="white" />
    <path
        d="M394.451 103.641C389.123 99.9271 386.459 94.6797 386.459 87.8984C386.459 81.1172 389.123 75.9102 394.451 72.2773C399.82 68.6445 406.722 66.8281 415.158 66.8281H435.199C435.199 62.1055 434.21 58.8158 432.232 56.959C430.255 55.1022 426.783 54.1738 421.818 54.1738C416.894 54.1738 413.422 55.4049 411.404 57.8672C409.426 60.2891 406.984 61.5 404.078 61.5H395.057C393.967 61.5 393.059 61.1569 392.332 60.4707C391.646 59.7441 391.303 58.8561 391.303 57.8066C391.303 46.222 402.302 40.4297 424.301 40.4297C433.908 40.4297 441.617 42.5892 447.43 46.9082C453.242 51.1868 456.148 57.8268 456.148 66.8281V104.307C456.148 105.396 455.805 106.285 455.119 106.971C454.433 107.657 453.545 108 452.455 108H440.77C439.68 108 438.792 107.657 438.105 106.971C437.419 106.244 437.076 105.356 437.076 104.307V102.43C430.699 106.991 423.332 109.251 414.977 109.211C406.661 109.211 399.82 107.354 394.451 103.641ZM416.611 80.5723C413.786 80.5723 411.546 81.2585 409.891 82.6309C408.276 84.0033 407.469 85.7793 407.469 87.959C407.469 90.1387 408.316 91.9349 410.012 93.3477C411.707 94.7604 414.109 95.4668 417.217 95.4668C423.433 95.4668 429.427 93.6504 435.199 90.0176V80.5723H416.611Z"
        fill="white" />
    <path
        d="M503.193 109.211C491.891 109.211 483.092 106.305 476.795 100.492C470.498 94.6797 467.35 86.1426 467.35 74.8809C467.35 63.5788 470.478 55.0215 476.734 49.209C482.991 43.3561 491.689 40.4297 502.83 40.4297C514.011 40.4297 522.588 42.2057 528.562 45.7578C534.577 49.3099 537.584 54.5573 537.584 61.5C537.584 62.5898 537.221 63.4779 536.494 64.1641C535.808 64.8503 534.92 65.1934 533.83 65.1934H524.809C522.064 65.1934 519.743 63.7201 517.846 60.7734C515.464 56.9792 511.246 55.082 505.191 55.082C499.177 55.082 494.959 56.6361 492.537 59.7441C490.156 62.8118 488.965 67.8372 488.965 74.8203C488.965 81.8034 490.196 86.849 492.658 89.957C495.161 93.0651 499.48 94.6191 505.615 94.6191C511.791 94.6191 516.07 92.722 518.451 88.9277C520.348 85.9408 522.669 84.4473 525.414 84.4473H534.435C535.525 84.4473 536.413 84.8105 537.1 85.5371C537.826 86.2233 538.189 87.0911 538.189 88.1406C538.189 95.0833 535.182 100.331 529.168 103.883C523.194 107.435 514.536 109.211 503.193 109.211Z"
        fill="white" />
    <path
        d="M579.725 94.8613L588.019 94.1348H590.26C591.35 94.1348 592.238 94.4779 592.924 95.1641C593.65 95.8503 594.014 96.7383 594.014 97.8281V104.307C594.014 105.195 593.65 106.002 592.924 106.729C592.238 107.415 591.35 107.839 590.26 108C586.143 108.807 580.774 109.211 574.154 109.211C556.797 109.211 548.119 100.129 548.119 81.9648V24.9297C548.119 23.8398 548.462 22.9518 549.148 22.2656C549.875 21.5391 550.763 21.1758 551.812 21.1758H565.375C566.424 21.1758 567.292 21.5391 567.978 22.2656C568.705 22.9518 569.068 23.8398 569.068 24.9297V45.1523H585.961C587.01 45.1523 587.878 45.4954 588.564 46.1816C589.291 46.8678 589.654 47.7559 589.654 48.8457V56.0508C589.654 57.1406 589.291 58.0286 588.564 58.7148C587.878 59.401 587.01 59.7441 585.961 59.7441H569.068V81.9648C569.068 86.082 570.037 89.2708 571.975 91.5312C573.912 93.7513 576.495 94.8613 579.725 94.8613Z"
        fill="white" />
    <path
        d="M654.863 97.7676C647.396 90.623 643.662 79.5833 643.662 64.6484C643.662 49.6732 647.396 38.6133 654.863 31.4688C662.371 24.2839 673.613 20.6914 688.588 20.6914H702.09C711.253 20.6914 719.346 23.0729 726.369 27.8359C733.433 32.599 736.965 39.1178 736.965 47.3926C736.965 49.7741 736.258 51.4896 734.846 52.5391C733.433 53.5482 732.06 54.0527 730.728 54.0527H723.523C719.81 54.0527 716.924 51.8327 714.865 47.3926C711.878 41.015 706.913 37.8262 699.971 37.8262H689.193C680.353 37.8262 674.359 39.7233 671.211 43.5176C668.062 47.3118 666.488 54.3353 666.488 64.5879C666.488 74.8405 668.062 81.8841 671.211 85.7188C674.359 89.513 680.353 91.4102 689.193 91.4102H701.242C708.185 91.4102 713.129 88.2214 716.076 81.8438C718.135 77.3633 721.041 75.123 724.795 75.123H732C733.897 75.123 735.391 75.8294 736.48 77.2422C737.611 78.6549 738.176 80.1888 738.176 81.8438C738.176 90.1185 734.664 96.6374 727.641 101.4C720.617 106.123 712.524 108.484 703.361 108.484H688.588C673.613 108.484 662.371 104.912 654.863 97.7676Z"
        fill="white" />
    <path
        d="M749.982 102.43V27.0488C749.982 25.3939 750.547 24.0013 751.678 22.8711C752.808 21.7409 754.16 21.1758 755.734 21.1758H767.117C768.691 21.1758 770.023 21.7409 771.113 22.8711C772.243 24.0013 772.809 25.3939 772.809 27.0488V90.8652H825.545C827.119 90.8652 828.451 91.4303 829.541 92.5605C830.671 93.6908 831.236 95.043 831.236 96.6172V102.309C831.236 103.883 830.671 105.235 829.541 106.365C828.451 107.455 827.119 108 825.545 108H755.734C754.16 108 752.808 107.475 751.678 106.426C750.547 105.336 749.982 104.004 749.982 102.43Z"
        fill="white" />
    <path
        d="M841.166 102.43V26.9277C841.166 25.3535 841.731 24.0013 842.861 22.8711C843.991 21.7409 845.344 21.1758 846.918 21.1758H858.18C859.835 21.1758 861.207 21.7409 862.297 22.8711C863.427 24.0013 863.992 25.3535 863.992 26.9277V102.309C863.992 103.883 863.407 105.235 862.236 106.365C861.106 107.455 859.754 108 858.18 108H846.918C845.344 108 843.991 107.475 842.861 106.426C841.731 105.336 841.166 104.004 841.166 102.43Z"
        fill="white" />
    <path
        d="M135.481 0.587891H11.1953C5.47457 0.587891 0.838135 5.23232 0.838135 10.9629V114.713C0.838135 120.443 5.47457 125.088 11.1953 125.088H135.481C141.202 125.088 145.838 120.443 145.838 114.713V10.9629C145.838 5.23232 141.202 0.587891 135.481 0.587891ZM21.5524 73.2129L42.2667 52.4629L21.5524 31.7129L31.9096 21.3379L62.981 52.4629L31.9096 83.5879L21.5524 73.2129ZM104.41 83.5879H62.981V73.2129H104.41V83.5879Z"
        fill="white" />
</svg>